# 3ds Max Wavefront OBJ Exporter v0.99 - (c)2007 guruware
# File Created: 26.04.2024 00:36:53

mtllib glass_2.mtl

#
# object Object062
#

v  -75.3509 110.5102 161.2784
v  -73.6792 124.5640 153.3106
v  -79.5247 124.0540 144.7118
v  -81.8470 111.5419 153.1086
v  -81.2141 123.7038 131.1512
v  -84.8458 112.8299 139.6947
v  -78.1548 130.4010 127.9441
v  -76.0655 130.8685 137.8417
v  -72.7690 131.1612 146.9381
v  -61.9188 129.1359 154.5900
v  -66.9520 130.5446 152.5954
v  -66.5289 123.4985 159.6473
v  -59.6836 122.9788 161.0831
v  -65.1169 111.2969 166.1315
v  -56.1156 111.7913 168.8954
v  75.1469 110.5102 161.2783
v  81.6430 111.5419 153.1086
v  79.3206 124.0540 144.7118
v  73.4752 124.5640 153.3105
v  81.0101 123.7038 131.1512
v  84.6418 112.8299 139.6947
v  77.9508 130.4010 127.9441
v  75.8615 130.8685 137.8416
v  72.5650 131.1612 146.9381
v  61.7148 129.1359 154.5900
v  59.4796 122.9788 161.0831
v  66.3249 123.4985 159.6472
v  66.7480 130.5446 152.5953
v  64.9129 111.2969 166.1315
v  55.9117 111.7913 168.8954
# 30 vertices

vn -0.5885 0.4373 0.6800
vn -0.6096 0.5323 0.5874
vn -0.8269 0.4760 0.2996
vn -0.7975 0.4227 0.4305
vn -0.8799 0.4544 0.1385
vn -0.9177 0.3582 0.1720
vn -0.8560 0.5027 0.1204
vn -0.8219 0.5342 0.1978
vn -0.6601 0.6057 0.4443
vn -0.0890 0.7045 0.7041
vn -0.3621 0.6617 0.6565
vn -0.3217 0.5628 0.7614
vn -0.1780 0.5623 0.8075
vn -0.3406 0.4567 0.8218
vn -0.2250 0.4728 0.8519
vn 0.5885 0.4373 0.6800
vn 0.7975 0.4227 0.4305
vn 0.8269 0.4760 0.2996
vn 0.6096 0.5323 0.5874
vn 0.8799 0.4544 0.1385
vn 0.9177 0.3582 0.1719
vn 0.8560 0.5027 0.1204
vn 0.8219 0.5342 0.1978
vn 0.6601 0.6057 0.4443
vn 0.0890 0.7045 0.7041
vn 0.1780 0.5623 0.8075
vn 0.3217 0.5628 0.7614
vn 0.3621 0.6617 0.6565
vn 0.3406 0.4567 0.8218
vn 0.2250 0.4728 0.8519
# 30 vertex normals

vt 0.1633 0.4262 0.0000
vt 0.1620 0.5144 0.0000
vt 0.1112 0.5297 0.0000
vt 0.1129 0.4459 0.0000
vt 0.0544 0.5575 0.0000
vt 0.0566 0.4862 0.0000
vt 0.0624 0.5977 0.0000
vt 0.1113 0.5750 0.0000
vt 0.1542 0.5545 0.0000
vt 0.2158 0.5366 0.0000
vt 0.1729 0.5488 0.0000
vt 0.2086 0.4993 0.0000
vt 0.2369 0.4923 0.0000
vt 0.2211 0.4261 0.0000
vt 0.2657 0.4279 0.0000
# 15 texture coords

o Object062
g Object062
usemtl 07___Default
s 1
f 1/1/1 2/2/2 3/3/3 4/4/4 
f 5/5/5 6/6/6 4/4/4 3/3/3 
f 7/7/7 5/5/5 3/3/3 8/8/8 
f 3/3/3 2/2/2 9/9/9 8/8/8 
f 10/10/10 11/11/11 12/12/12 13/13/13 
f 14/14/14 15/15/15 13/13/13 12/12/12 
f 1/1/1 14/14/14 12/12/12 2/2/2 
f 11/11/11 9/9/9 2/2/2 12/12/12 
f 16/1/16 17/4/17 18/3/18 19/2/19 
f 20/5/20 18/3/18 17/4/17 21/6/21 
f 22/7/22 23/8/23 18/3/18 20/5/20 
f 18/3/18 23/8/23 24/9/24 19/2/19 
f 25/10/25 26/13/26 27/12/27 28/11/28 
f 29/14/29 27/12/27 26/13/26 30/15/30 
f 16/1/16 19/2/19 27/12/27 29/14/29 
f 28/11/28 27/12/27 19/2/19 24/9/24 
# 16 polygons

